<?xml version="1.0" standalone="no"?><!DOCTYPE svg PUBLIC "-//W3C//DTD SVG 1.1//EN" "http://www.w3.org/Graphics/SVG/1.1/DTD/svg11.dtd"><svg t="1567870768716" class="icon" viewBox="0 0 1024 1024" version="1.1" xmlns="http://www.w3.org/2000/svg" p-id="7069" xmlns:xlink="http://www.w3.org/1999/xlink" width="200" height="200"><defs><style type="text/css"></style></defs><path d="M318.285454 1015.418571h-78.666507c-13.033825 0-23.60251-10.558452-23.60251-23.600463v-98.33646h-98.33032c-13.031778 0-23.59944-10.555382-23.59944-23.59637 0-0.695847 0.031722-1.397833 0.092097-2.082424l0.019443-80.521757c0-12.97959 10.525707-23.50018 23.507343-23.50018v-0.096191h98.310877V642.964512c-44.588432-13.175041-83.205884-39.495447-111.645553-74.091314-32.346644-39.349115-51.587832-89.330359-51.587832-142.806188 0-62.326386 25.266403-118.756494 66.110564-159.599632 40.846209-40.846209 97.278363-66.109542 159.601679-66.109541 39.782996-0.004093 77.160203 10.290347 109.621458 28.362921a263.616453 263.616453 0 0 0-43.671552 31.416461c-20.402638-8.120942-42.65234-12.580501-65.949906-12.580502-49.295631-0.00307-93.928065 19.98206-126.23173 52.282656-32.299572 32.299572-52.278563 76.92996-52.278563 126.227637 0 42.360699 15.183787 81.888892 40.708063 112.936963 25.356454 30.844434 60.879434 53.406244 101.848439 62.214846 11.654411 1.432626 20.676884 11.368909 20.676883 23.419339v162.644985c0 13.039965-10.568685 23.603534-23.600463 23.603534H141.20574l-0.008186 35.400184h98.42037c13.030755 0 23.600464 10.566639 23.600463 23.600464v98.333389h31.466603v-98.333389c0-13.032802 10.564592-23.600464 23.600464-23.600464h98.416277l-0.016373-35.400184h-98.399904v-0.092097c-12.984706 0-23.50939-10.524683-23.50939-23.508367V624.883751c-0.409322-11.284998 7.378023-21.540552 18.805261-23.875732 41.668945-8.511844 77.60534-31.102306 103.104033-62.207683 25.330871-30.897646 40.32023-70.308158 40.32023-112.733326 0-2.770084-0.064468-5.508446-0.184195-8.239645a74.822976 74.822976 0 0 1 10.20132-12.695111c9.430771-9.421561 20.998201-16.044386 33.586888-19.389567a226.611728 226.611728 0 0 1 3.595891 40.324323c0 53.499364-19.035504 103.369069-51.201023 142.601527-28.245241 34.451581-66.657009 60.624631-111.210649 73.749531v121.268705h98.388648c13.034848 0 23.598417 10.566639 23.598417 23.600464 0.002047 0.695847-0.029676 1.39374-0.090051 2.073214l0.035816 80.52585c0 12.983683-10.524683 23.507343-23.50939 23.507343v0.089028H341.885918v98.336459c0 13.040988-10.566639 23.59944-23.600464 23.59944z m309.05832-755.123763v0.004093c-40.598569-22.08188-85.957549-30.597817-130.005676-26.146445-50.291306 5.081728-98.823552 26.960995-136.584498 64.714778l-0.004094 0.004093c-43.942727 43.942727-65.91409 101.540425-65.91409 159.135053 0 13.839165 1.268897 27.682424 3.810785 41.337394 12.066803-3.395323 23.14407-9.845209 32.222824-18.91373a74.617292 74.617292 0 0 0 11.339233-14.564688 181.585322 181.585322 0 0 1-0.172938-7.858976c0-45.521685 17.365471-91.039277 52.089251-125.762034l-0.002046-0.004093c29.933693-29.930623 68.240061-47.258232 107.824535-51.252189 39.710341-4.018515 80.768374 5.268993 116.038598 28.577815 9.771531 6.472399 22.600696 4.697989 30.299012-3.652172l171.629596-171.664389c9.149362-9.203598 9.125826-24.069137-0.046048-33.233849l0.046048-0.046048-45.182971-45.187065h149.284726v148.320774l-47.399448-46.343399c-9.24146-8.983587-23.96783-8.852604-33.047608 0.231267l-0.046049-0.050142-172.248694 172.274278c-8.416677 8.42077-9.142199 21.606044-2.186801 30.851597 22.744981 35.016445 31.789967 75.601711 27.819546 114.877147-4.003166 39.587544-21.323612 77.890842-51.257305 107.820442v0.004093c-34.724803 34.72378-80.241372 52.085158-125.762034 52.085159a178.245257 178.245257 0 0 1-65.174241-12.322629 265.993588 265.993588 0 0 1-43.565128 31.566886c33.736291 18.637439 71.237319 27.955646 108.739369 27.955647 57.590534 0 115.187209-21.975457 159.131983-65.914091h0.002046c37.757877-37.76197 59.63305-86.298309 64.715802-136.587568 4.449326-44.019475-4.049215-89.367198-26.112676-129.948371l142.813351-142.836887 69.482352 67.942279c4.321413 4.897534 10.648503 7.989959 17.695999 7.989959 13.028708 0 23.600464-10.566639 23.600463-23.600464V32.181892c0-13.036895-10.570732-23.600464-23.600463-23.600463H717.756789a23.482784 23.482784 0 0 0-16.678834 6.918559c-9.21997 9.206667-9.21997 24.148955 0 33.366879l68.833577 68.833577-142.567758 142.594364z" fill="#C4603E" p-id="7070"></path><path d="M203.871863 353.423672C184.777008 372.521597 172.958868 398.906472 172.958868 428.048127c0.002047 29.142679 11.81814 55.527553 30.912995 74.625479 19.092809 19.098949 45.481776 30.905832 74.623432 30.905832 29.142679-0.00307 55.527553-11.806883 74.623432-30.905832 10.996426-11.00052 19.585018-24.409897 24.882664-39.38186 6.41714-18.134996 5.787808-34.302179 12.700228-53.034785 6.67399-18.100204 17.2877-35.085006 31.823736-49.615925 26.884247-26.89141 62.123772-40.331487 97.36125-40.331486 35.238502-0.004093 70.48212 13.44417 97.365344 40.331486 26.89141 26.884247 40.334557 62.126842 40.334556 97.365344 0 35.234409-13.443147 70.47291-40.334556 97.36125-26.883223 26.884247-62.127865 40.331487-97.365344 40.331487a138.395747 138.395747 0 0 1-34.59996-4.398162 267.200064 267.200064 0 0 0 19.714978-28.109141c4.934373 0.68766 9.910701 1.041724 14.884982 1.041723 27.187145-0.004093 54.379406-10.368118 75.120758-31.113563 20.738282-20.742375 31.112539-47.925427 31.112539-75.112571 0-27.195331-10.375281-54.379406-31.112539-75.121781-20.742375-20.742375-47.933613-31.108446-75.120758-31.108446-27.181005-0.004093-54.372243 10.367094-75.112571 31.108446-9.222017 9.22304-16.393333 19.717024-21.515993 30.918111-9.943446 21.748283-8.557893 42.985938-17.726698 65.625519-6.947212 17.17002-17.281561 32.61168-30.165983 45.495079-24.790566 24.790566-59.03851 40.123756-96.869041 40.123756-37.830531-0.00307-72.080521-15.333189-96.874158-40.123756-24.787497-24.79466-40.127849-59.042603-40.127849-96.874157 0-37.827461 15.340353-72.079498 40.127849-96.873134 24.793636-24.79159 59.043626-40.124779 96.874158-40.12478 11.409841 0 22.494272 1.401927 33.091609 4.029772a264.555846 264.555846 0 0 0-19.352728 28.329152c-32.565631-4.229316-65.076004 6.729248-88.362314 30.018628v-0.00614z" fill="#C4603E" p-id="7071"></path></svg>